<svg width="512" height="369" viewBox="0 0 512 369" fill="none" xmlns="http://www.w3.org/2000/svg">
<path d="M506.951 139.296C505.562 138.188 492.599 128.358 465.261 128.358C458.043 128.389 450.839 129.011 443.721 130.217C438.43 93.7937 408.447 76.0353 407.103 75.2386L399.762 70.9868L394.934 77.9841C388.888 87.3837 384.474 97.7454 381.883 108.629C376.988 129.421 379.965 148.95 390.481 165.645C377.782 172.752 357.411 174.502 353.289 174.657H16.027C7.21776 174.669 0.0695168 181.819 0.0215083 190.666C-0.371874 220.34 4.6339 249.838 14.7923 277.706C26.4104 308.307 43.6949 330.848 66.1822 344.642C91.3809 360.142 132.321 368.999 178.728 368.999C199.692 369.065 220.617 367.159 241.229 363.308C269.881 358.024 297.451 347.966 322.799 333.549C343.686 321.401 362.484 305.947 378.466 287.781C405.186 257.402 421.104 223.568 432.942 193.5H437.66C466.915 193.5 484.905 181.742 494.826 171.889C501.419 165.605 506.566 157.95 509.906 149.459L512 143.304L506.951 139.296Z" fill="#2496ED"/>
<path d="M47.2883 164.737H92.4829C94.6626 164.737 96.4289 162.963 96.4289 160.774V120.342C96.441 118.153 94.6841 116.369 92.5051 116.356C92.4979 116.356 92.49 116.356 92.4829 116.356H47.2883C45.1086 116.356 43.3423 118.131 43.3423 120.32V120.342V160.773C43.3423 162.963 45.1086 164.737 47.2883 164.737V164.737Z" fill="#2496ED"/>
<path d="M109.569 164.737H154.764C156.943 164.737 158.71 162.963 158.71 160.774V120.342C158.722 118.153 156.965 116.369 154.785 116.356C154.778 116.356 154.77 116.356 154.763 116.356H109.568C107.376 116.356 105.6 118.14 105.6 120.342V160.773C105.613 162.966 107.386 164.737 109.569 164.737" fill="#2496ED"/>
<path d="M172.797 164.737H217.991C220.171 164.737 221.937 162.963 221.937 160.774V120.342C221.95 118.153 220.193 116.369 218.013 116.356C218.006 116.356 217.998 116.356 217.991 116.356H172.796C170.616 116.356 168.85 118.131 168.85 120.32V120.342V160.773C168.851 162.963 170.618 164.737 172.797 164.737V164.737Z" fill="#2496ED"/>
<path d="M235.276 164.737H280.47C282.653 164.737 284.426 162.967 284.438 160.774V120.342C284.438 118.14 282.662 116.356 280.47 116.356H235.276C233.096 116.356 231.33 118.131 231.33 120.32V120.342V160.773C231.33 162.963 233.097 164.737 235.276 164.737V164.737Z" fill="#2496ED"/>
<path d="M109.569 106.57H154.763C156.946 106.558 158.709 104.777 158.709 102.585V62.1531C158.709 59.9639 156.942 58.1899 154.763 58.1899H109.569C107.386 58.1899 105.613 59.9603 105.601 62.1531V102.585C105.613 104.781 107.382 106.558 109.569 106.57Z" fill="#2496ED"/>
<path d="M172.797 106.57H217.991C220.174 106.558 221.937 104.777 221.937 102.585V62.1531C221.937 59.9639 220.17 58.1899 217.991 58.1899H172.797C170.617 58.1899 168.851 59.9646 168.851 62.1531V102.585C168.851 104.777 170.614 106.558 172.797 106.57Z" fill="#2496ED"/>
<path d="M235.276 106.57H280.47C282.657 106.558 284.426 104.781 284.438 102.585V62.1531C284.426 59.9603 282.653 58.1899 280.47 58.1899H235.276C233.096 58.1899 231.33 59.9646 231.33 62.1531V102.585C231.33 104.777 233.093 106.558 235.276 106.57Z" fill="#2496ED"/>
<path d="M235.276 48.3809H280.47C282.653 48.3809 284.426 46.6098 284.438 44.4177V3.96319C284.426 1.77038 282.653 0 280.47 0H235.276C233.096 0 231.33 1.77397 231.33 3.96319V44.417C231.33 46.6062 233.097 48.3809 235.276 48.3809Z" fill="#2496ED"/>
<path d="M298.306 164.737H343.5C345.684 164.737 347.456 162.967 347.469 160.774V120.342C347.469 118.14 345.692 116.356 343.5 116.356H298.306C296.127 116.356 294.36 118.131 294.36 120.32V120.342V160.773C294.36 162.963 296.127 164.737 298.306 164.737" fill="#2496ED"/>
</svg>
