<svg width="512" height="512" viewBox="0 0 512 512" fill="none" xmlns="http://www.w3.org/2000/svg">
<path d="M0 30C0 13.4315 13.4315 0 30 0H482C498.569 0 512 13.4315 512 30V482C512 498.569 498.569 512 482 512H30C13.4315 512 0 498.569 0 482V30Z" fill="#F7DF1E"/>
<path d="M134.624 427.864L173.804 404.152C181.364 417.554 188.24 428.894 204.734 428.894C220.544 428.894 230.514 422.71 230.514 398.654V235.058H278.628V399.334C278.628 449.168 249.416 471.852 206.796 471.852C168.306 471.852 145.964 451.918 134.622 427.86M304.762 422.708L343.938 400.026C354.252 416.868 367.656 429.24 391.368 429.24C411.306 429.24 424.018 419.272 424.018 405.524C424.018 389.028 410.958 383.184 388.962 373.564L376.936 368.404C342.222 353.63 319.196 335.07 319.196 295.89C319.196 259.802 346.69 232.306 389.652 232.306C420.24 232.306 442.236 242.962 458.044 270.8L420.58 294.86C412.33 280.082 403.398 274.24 389.65 274.24C375.558 274.24 366.622 283.176 366.622 294.86C366.622 309.294 375.558 315.14 396.178 324.076L408.206 329.23C449.106 346.76 472.132 364.63 472.132 404.838C472.132 448.146 438.108 471.858 392.398 471.858C347.72 471.858 318.85 450.55 304.76 422.71" fill="black"/>
</svg>
