<svg width="512" height="507" viewBox="0 0 512 507" fill="none" xmlns="http://www.w3.org/2000/svg">
<path d="M4.87125 176.798C4.87125 176.798 -7.59915 167.8 7.36533 155.786L42.2305 124.581C42.2305 124.581 52.2068 114.075 62.7547 123.228L384.491 367.046V483.962C384.491 483.962 384.335 502.321 360.797 500.293L4.87125 176.798Z" fill="#2489CA"/>
<path d="M87.7996 252.16L4.8713 327.625C4.8713 327.625 -3.65015 333.97 4.8713 345.308L43.3737 380.361C43.3737 380.361 52.5187 390.191 66.0283 379.009L153.945 312.282L87.7996 252.16Z" fill="#1070B3"/>
<path d="M233.392 252.783L385.479 136.543L384.492 20.2504C384.492 20.2504 377.997 -5.12998 356.329 8.08032L153.945 192.452L233.392 252.783Z" fill="#0877B9"/>
<path d="M360.798 500.45C369.631 509.5 380.335 506.535 380.335 506.535L498.856 448.077C514.028 437.728 511.898 424.881 511.898 424.881V75.7971C511.898 60.4544 496.206 55.1495 496.206 55.1495L393.481 5.58494C371.034 -8.30146 356.33 8.08137 356.33 8.08137C356.33 8.08137 375.243 -5.54498 384.492 20.2515V481.831C384.492 485.004 383.816 488.124 382.465 490.933C379.764 496.394 373.892 501.491 359.811 499.358L360.798 500.45Z" fill="#3C99D4"/>
</svg>
