<svg width="512" height="564" viewBox="0 0 512 564" fill="none" xmlns="http://www.w3.org/2000/svg">
<path d="M511.998 493.422C512.208 532.146 480.824 563.676 441.933 563.885C439.042 563.908 436.128 563.746 433.26 563.398C397.167 558.085 370.726 526.832 371.612 490.545V73.335C370.75 37.0014 397.26 5.74891 433.376 0.482163C472.011 -4.01894 507.008 23.4981 511.531 61.9431C511.858 64.7736 512.021 67.6042 511.998 70.458V493.422Z" fill="#F9AB00"/>
<path d="M70.2049 424.28C108.98 424.28 140.41 455.556 140.41 494.14C140.41 532.724 108.98 564 70.2049 564C31.4301 564 0 532.724 0 494.14C0 455.556 31.4301 424.28 70.2049 424.28ZM254.915 212.566C215.954 214.701 185.736 247.206 186.646 286.022V473.653C186.646 524.58 209.169 555.485 242.161 562.074C280.237 569.754 317.332 545.276 325.05 507.388C326.006 502.748 326.472 498.038 326.449 493.305V282.774C326.519 244.051 295.042 212.613 256.128 212.543C255.731 212.543 255.312 212.543 254.915 212.566Z" fill="#E37400"/>
</svg>
