<svg width="512" height="307" viewBox="0 0 512 307" fill="none" xmlns="http://www.w3.org/2000/svg">
<path d="M144.287 111.497C144.287 117.814 144.968 122.937 146.16 126.693C147.522 130.45 149.225 134.547 151.609 138.987C152.46 140.353 152.801 141.719 152.801 142.914C152.801 144.621 151.779 146.329 149.566 148.036L138.838 155.208C137.305 156.232 135.772 156.744 134.41 156.744C132.707 156.744 131.004 155.891 129.302 154.354C126.917 151.793 124.874 149.061 123.171 146.329C121.468 143.426 119.765 140.182 117.892 136.255C104.61 151.964 87.922 159.818 67.8283 159.818C53.5243 159.818 42.1151 155.72 33.7711 147.524C25.4271 139.328 21.1699 128.401 21.1699 114.741C21.1699 100.228 26.2785 88.4462 36.6659 79.5674C47.0534 70.6887 60.8465 66.2493 78.386 66.2493C84.1757 66.2493 90.1357 66.7615 96.4363 67.6152C102.737 68.469 109.208 69.8349 116.019 71.3716V58.9072C116.019 45.9306 113.295 36.881 108.016 31.5879C102.567 26.2948 93.3712 23.7336 80.2591 23.7336C74.2991 23.7336 68.1688 24.4166 61.8683 25.9533C55.5677 27.49 49.4374 29.3682 43.4774 31.7587C40.7528 32.9539 38.7094 33.6369 37.5174 33.9784C36.3254 34.3199 35.4739 34.4906 34.7928 34.4906C32.4088 34.4906 31.2168 32.7831 31.2168 29.1975V20.831C31.2168 18.099 31.5574 16.0501 32.4088 14.8549C33.2602 13.6596 34.7928 12.4644 37.1768 11.2692C43.1368 8.19579 50.2888 5.6346 58.6328 3.58566C66.9768 1.36596 75.8317 0.341491 85.1974 0.341491C105.461 0.341491 120.276 4.95162 129.812 14.1719C139.178 23.3921 143.946 37.3933 143.946 56.1753V111.497H144.287ZM75.1506 137.45C80.77 137.45 86.5597 136.426 92.69 134.377C98.8203 132.328 104.269 128.571 108.867 123.449C111.592 120.205 113.635 116.619 114.657 112.521C115.679 108.423 116.36 103.472 116.36 97.6664V90.4951C111.421 89.2999 106.143 88.2754 100.693 87.5925C95.2443 86.9095 89.9655 86.568 84.6866 86.568C73.2774 86.568 64.9334 88.7877 59.314 93.3978C53.6945 98.0079 50.97 104.496 50.97 113.034C50.97 121.059 53.0134 127.035 57.2705 131.133C61.3574 135.401 67.3174 137.45 75.1506 137.45V137.45ZM211.89 155.891C208.825 155.891 206.782 155.378 205.419 154.183C204.057 153.159 202.865 150.768 201.843 147.524L161.826 15.5378C160.804 12.1229 160.294 9.90324 160.294 8.70802C160.294 5.97609 161.656 4.43938 164.38 4.43938H181.068C184.304 4.43938 186.518 4.95162 187.71 6.14684C189.072 7.17131 190.094 9.56175 191.115 12.8059L219.723 125.839L246.288 12.8059C247.139 9.39101 248.161 7.17131 249.523 6.14684C250.886 5.12237 253.27 4.43938 256.335 4.43938H269.958C273.193 4.43938 275.407 4.95162 276.769 6.14684C278.131 7.17131 279.323 9.56175 280.005 12.8059L306.91 127.205L336.369 12.8059C337.391 9.39101 338.583 7.17131 339.775 6.14684C341.137 5.12237 343.351 4.43938 346.416 4.43938H362.253C364.977 4.43938 366.51 5.80535 366.51 8.70802C366.51 9.56175 366.34 10.4155 366.169 11.44C365.999 12.4644 365.658 13.8304 364.977 15.7086L323.938 147.695C322.917 151.11 321.725 153.329 320.362 154.354C319 155.378 316.786 156.061 313.891 156.061H299.247C296.011 156.061 293.798 155.549 292.435 154.354C291.073 153.159 289.881 150.939 289.2 147.524L262.806 37.3933L236.582 147.353C235.73 150.768 234.709 152.988 233.346 154.183C231.984 155.378 229.6 155.891 226.535 155.891H211.89ZM430.708 160.501C421.853 160.501 412.998 159.476 404.484 157.427C395.969 155.378 389.328 153.159 384.901 150.598C382.176 149.061 380.303 147.353 379.622 145.817C378.941 144.28 378.6 142.573 378.6 141.036V132.328C378.6 128.742 379.962 127.035 382.517 127.035C383.538 127.035 384.56 127.205 385.582 127.547C386.604 127.888 388.136 128.571 389.839 129.254C395.629 131.816 401.929 133.865 408.57 135.23C415.382 136.596 422.023 137.279 428.834 137.279C439.562 137.279 447.907 135.401 453.696 131.645C459.486 127.888 462.551 122.425 462.551 115.424C462.551 110.643 461.019 106.716 457.953 103.472C454.888 100.228 449.099 97.325 440.754 94.593L416.063 86.9095C403.632 82.9823 394.437 77.177 388.817 69.4934C383.198 61.9806 380.303 53.6141 380.303 44.7353C380.303 37.564 381.836 31.2464 384.901 25.7826C387.966 20.3187 392.053 15.5378 397.161 11.7814C402.27 7.8543 408.06 4.95162 414.871 2.90267C421.682 0.853727 428.834 0 436.327 0C440.073 0 443.99 0.170745 447.736 0.682982C451.653 1.19522 455.229 1.8782 458.805 2.56118C462.211 3.41491 465.446 4.26864 468.511 5.29311C471.576 6.31758 473.96 7.34206 475.663 8.36653C478.047 9.7325 479.75 11.0985 480.772 12.6352C481.793 14.0011 482.304 15.8793 482.304 18.2698V26.2948C482.304 29.8805 480.942 31.7587 478.388 31.7587C477.025 31.7587 474.812 31.0757 471.917 29.7097C462.211 25.2703 451.312 23.0506 439.222 23.0506C429.516 23.0506 421.853 24.5874 416.574 27.8315C411.295 31.0757 408.57 36.0273 408.57 43.0279C408.57 47.8087 410.273 51.9066 413.679 55.1508C417.085 58.395 423.385 61.6391 432.41 64.5418L456.591 72.2254C468.852 76.1525 477.707 81.6164 482.985 88.6169C488.264 95.6175 490.819 103.643 490.819 112.521C490.819 119.863 489.286 126.522 486.391 132.328C483.326 138.133 479.239 143.256 473.96 147.353C468.681 151.622 462.381 154.695 455.059 156.915C447.396 159.306 439.392 160.501 430.708 160.501V160.501Z" fill="#252F3E"/>
<path fill-rule="evenodd" clip-rule="evenodd" d="M462.891 243.483C406.867 284.974 325.471 307 255.483 307C157.399 307 69.0203 270.631 2.26824 210.187C-3.01062 205.406 1.75738 198.918 8.05795 202.674C80.2591 244.678 169.319 270.119 261.443 270.119C323.598 270.119 391.882 257.142 454.718 230.506C464.083 226.237 472.087 236.653 462.891 243.483V243.483Z" fill="#FF9900"/>
<path fill-rule="evenodd" clip-rule="evenodd" d="M486.221 216.846C479.069 207.626 438.881 212.407 420.661 214.627C415.212 215.31 414.36 210.529 419.299 206.943C451.312 184.405 503.93 190.893 510.06 198.406C516.191 206.089 508.358 258.85 478.387 284.12C473.79 288.047 469.362 285.998 471.406 280.876C478.217 263.972 493.373 225.896 486.221 216.846V216.846Z" fill="#FF9900"/>
</svg>
