<svg width="512" height="510" viewBox="0 0 512 510" fill="none" xmlns="http://www.w3.org/2000/svg">
<path fill-rule="evenodd" clip-rule="evenodd" d="M301.471 0C297.769 0 294.331 0.793388 291.158 1.85118C297.901 6.34688 301.604 12.2971 303.455 19.0407C303.587 19.9662 303.852 20.6274 303.984 21.553C304.117 22.3463 304.248 23.1397 304.248 23.9331C304.777 35.569 301.207 37.0235 298.695 43.8993C294.86 52.7585 295.918 62.2789 300.546 69.948C300.943 70.8736 301.471 71.9314 302.133 72.857C297.108 39.4036 325.008 34.379 330.164 23.9331C330.561 14.8094 323.024 8.72697 317.074 4.49571C311.388 1.05782 306.232 0 301.471 0ZM343.519 7.53694C342.99 10.5781 343.387 9.78478 343.255 11.3715C343.122 12.4293 343.122 13.7516 342.99 14.8094C342.726 15.8672 342.461 16.925 342.065 17.9829C341.801 19.0407 341.404 20.0985 341.007 21.1563C340.478 22.2141 340.082 23.1397 339.553 24.1975C339.156 24.7266 338.892 25.2553 338.495 25.7842C338.231 26.1809 337.966 26.5776 337.702 26.9743C337.04 27.8999 336.379 28.8255 335.718 29.6188C334.925 30.4122 334.264 31.3377 333.338 31.9989V32.1313C332.545 32.7925 331.751 33.5858 330.826 34.2469C328.049 36.3625 324.876 37.9493 321.967 39.9327C321.041 40.5938 320.116 41.1228 319.322 41.9161C318.397 42.5772 317.603 43.2383 316.81 44.0317C315.884 44.8251 315.223 45.6185 314.43 46.5441C313.769 47.3374 312.975 48.263 312.447 49.1886C311.785 50.1141 311.124 51.0398 310.595 51.9653C310.066 53.0231 309.67 53.9487 309.141 55.0065C308.744 56.0643 308.348 56.99 308.083 58.0477C307.686 59.2378 307.422 60.2956 307.158 61.3535C307.025 61.8826 307.025 62.5435 306.893 63.0724C306.761 63.6015 306.761 64.1302 306.629 64.6591C306.629 65.7169 306.497 66.907 306.497 67.9648C306.497 68.7581 306.497 69.5515 306.629 70.3449C306.629 71.4027 306.761 72.4605 307.026 73.6505C307.158 74.7083 307.422 75.7661 307.687 76.824C308.084 77.8818 308.348 78.9396 308.745 79.9974C309.009 80.6586 309.406 81.3197 309.67 81.8486L279.259 70.0804C274.102 68.6259 269.077 67.3037 263.92 66.1136C261.144 65.4525 258.367 64.7913 255.59 64.1302C247.657 62.5435 239.591 61.3535 231.525 60.5601C231.261 60.5601 231.129 60.4277 230.864 60.4277C222.931 59.6343 215.13 59.2377 207.196 59.2377C201.378 59.2377 195.56 59.5019 189.875 59.8988C181.809 60.4279 173.743 61.4855 165.677 62.8078C163.694 63.072 161.711 63.4689 159.727 63.8656C155.628 64.6589 151.662 65.5845 147.827 66.5101C145.844 67.0393 143.86 67.568 141.877 68.0968C139.894 68.8902 138.042 69.8158 136.191 70.6092C134.737 71.2703 133.282 71.9314 131.828 72.5926C131.564 72.725 131.299 72.725 131.167 72.8568C129.845 73.518 128.654 74.0468 127.465 74.708C127.068 74.8404 126.803 74.9722 126.539 75.1047C125.084 75.7658 123.63 76.5592 122.44 77.2203C121.514 77.617 120.589 78.1459 119.795 78.5426C119.399 78.8068 118.87 79.0717 118.605 79.2037C117.415 79.8648 116.225 80.5259 115.168 81.1871C113.978 81.8482 112.92 82.5094 111.994 83.1705C111.069 83.8317 110.143 84.3605 109.35 85.0216C109.217 85.1541 109.085 85.1541 108.953 85.2859C108.16 85.815 107.234 86.4759 106.441 87.1371C106.441 87.1371 106.308 87.2695 106.176 87.4014C105.515 87.9305 104.854 88.4592 104.193 88.988C103.929 89.1205 103.664 89.3847 103.4 89.5172C102.739 90.0463 102.078 90.7072 101.416 91.2362C101.284 91.5004 101.02 91.6328 100.887 91.7653C100.094 92.5586 99.3006 93.2197 98.5073 94.0131C98.3748 94.0131 98.3748 94.1455 98.243 94.2774C97.4497 94.9385 96.6563 95.7319 95.863 96.5252C95.7305 96.6576 95.7305 96.7895 95.5987 96.7895C94.9376 97.4506 94.2765 98.1118 93.6153 98.9051C93.3511 99.1693 92.9542 99.4342 92.6898 99.6984C92.0287 100.492 91.2353 101.285 90.442 102.079C90.3095 102.343 90.0453 102.475 89.9129 102.74C88.8551 103.798 87.9295 104.855 86.8717 105.913C86.7392 106.046 86.6074 106.177 86.475 106.31C84.3594 108.558 82.1116 110.806 79.7316 112.789C77.3515 114.905 74.8392 116.888 72.3269 118.607C69.6824 120.458 67.1702 122.045 64.3935 123.632C61.749 125.086 58.9722 126.408 56.0633 127.598C53.2866 128.788 50.3776 129.846 47.4687 130.772C41.9152 131.962 36.2296 134.21 31.3372 134.606C30.2795 134.606 29.0894 134.871 28.0316 135.003C26.8416 135.267 25.7838 135.532 24.726 135.796C23.6683 136.193 22.6104 136.59 21.5526 136.986C20.4948 137.383 19.4371 137.912 18.3793 138.441C17.4537 139.102 16.3959 139.631 15.4703 140.292C14.5447 140.953 13.6191 141.747 12.8258 142.54C11.9002 143.201 10.9746 144.127 10.1813 144.92C9.38794 145.846 8.59458 146.639 7.93348 147.565C7.27237 148.622 6.47901 149.548 5.95009 150.606C5.28898 151.531 4.62787 152.589 4.09895 153.647C3.56984 154.837 3.04116 155.895 2.64449 157.085C2.24781 158.143 1.85113 159.333 1.45446 160.523C1.19021 161.581 0.925346 162.638 0.793348 163.696C0.793348 163.829 0.66092 163.96 0.66092 164.093C0.396675 165.283 0.396674 166.87 0.264241 167.663C0.131812 168.589 0 169.382 0 170.308C0 170.837 4.11626e-07 171.498 0.132429 172.027C0.264857 172.952 0.396669 173.746 0.661538 174.539C0.925781 175.332 1.19065 176.126 1.58708 176.919V177.051C1.98375 177.845 2.51268 178.638 3.04154 179.431C3.57065 180.225 4.09939 181.018 4.76049 181.812C5.4216 182.473 6.21496 183.266 7.00831 183.927C7.80167 184.721 8.59502 185.382 9.52056 186.043C12.694 188.82 13.4873 189.745 17.5863 191.861C18.2474 192.257 18.9086 192.522 19.7019 192.919C19.8344 192.919 19.9662 193.051 20.0986 193.051C20.0986 193.315 20.0986 193.448 20.2311 193.712C20.3635 194.77 20.6277 195.828 20.8922 196.886C21.1564 198.076 21.5533 199.134 21.95 200.059C22.3467 200.852 22.6111 201.646 23.0078 202.439C23.1402 202.703 23.272 202.968 23.4045 203.1C23.9336 204.158 24.4623 205.084 24.9911 206.009C25.6523 206.935 26.3134 207.86 26.9745 208.786C27.6356 209.579 28.429 210.505 29.2223 211.298C30.0157 212.092 30.809 212.753 31.7346 213.546C31.7346 213.546 31.8671 213.679 31.9989 213.679C32.7922 214.34 33.5856 215.001 34.3789 215.53C35.3045 216.191 36.2301 216.72 37.2879 217.249C38.2135 217.778 39.2712 218.307 40.329 218.703C41.1224 219.1 42.0479 219.365 42.9735 219.629C43.106 219.762 43.2378 219.762 43.5026 219.893C44.0317 220.026 44.6926 220.158 45.2215 220.29C44.8249 227.43 44.6924 234.174 45.7506 236.554C46.9406 239.198 52.7585 231.133 58.5764 221.877C57.7831 231 57.2542 241.711 58.5764 244.884C60.0309 248.19 67.9644 237.876 74.8401 226.505C168.587 204.819 254.137 269.611 263.128 361.111C261.409 346.831 243.823 338.897 235.758 340.881C231.791 350.666 225.047 363.227 214.205 371.029C215.131 362.302 214.734 353.31 212.883 344.583C209.974 356.748 204.288 368.12 196.487 377.904C183.926 378.83 171.364 372.747 164.753 363.624C164.224 363.227 164.092 362.434 163.695 361.905C163.298 360.979 162.902 360.054 162.637 359.128C162.241 358.203 161.976 357.277 161.844 356.351C161.711 355.426 161.711 354.5 161.711 353.442C161.711 352.781 161.711 352.12 161.711 351.459C161.844 350.533 162.108 349.608 162.373 348.682C162.637 347.757 162.902 346.831 163.298 345.905C163.827 344.98 164.224 344.054 164.885 343.129C167.133 336.782 167.133 331.625 163.034 328.584C162.24 328.055 161.447 327.658 160.521 327.261C159.992 327.129 159.331 326.865 158.803 326.732C158.406 326.6 158.141 326.468 157.745 326.336C156.819 326.071 155.894 325.806 154.968 325.674C154.042 325.41 153.117 325.278 152.191 325.278C151.266 325.145 150.208 325.014 149.282 325.014C148.621 325.014 147.96 325.146 147.299 325.146C146.241 325.146 145.316 325.279 144.39 325.543C143.464 325.675 142.539 325.807 141.613 326.072C140.688 326.336 139.762 326.601 138.837 326.997C137.911 327.394 137.118 327.791 136.192 328.187C135.399 328.584 134.605 329.113 133.68 329.51C102.871 349.608 121.251 396.681 142.274 410.3C134.341 411.755 126.275 413.474 124.027 415.193C123.895 415.325 123.763 415.457 123.763 415.457C129.449 418.895 135.399 421.804 141.614 424.316C150.076 427.093 159.067 429.605 163.034 430.663V430.795C174.009 433.043 185.116 433.837 196.355 433.175C254.93 429.076 302.928 384.516 311.655 325.807C311.919 326.997 312.184 328.055 312.448 329.245C312.845 331.625 313.374 334.138 313.638 336.65V336.782C313.902 337.972 314.035 339.162 314.167 340.22V340.749C314.3 341.939 314.431 343.13 314.431 344.187C314.564 345.642 314.696 347.096 314.696 348.551V350.666C314.696 351.328 314.828 352.121 314.828 352.782C314.828 353.575 314.696 354.369 314.696 355.162V357.013C314.696 357.939 314.563 358.732 314.563 359.658C314.563 360.187 314.563 360.716 314.431 361.377C314.431 362.302 314.298 363.228 314.298 364.286C314.166 364.682 314.166 365.079 314.166 365.476C314.033 366.534 313.901 367.459 313.769 368.517C313.769 368.914 313.769 369.31 313.637 369.707C313.504 371.029 313.24 372.219 313.108 373.542V373.674V373.807C312.843 374.997 312.578 376.319 312.314 377.509V377.906C312.05 379.096 311.785 380.286 311.521 381.476C311.521 381.608 311.388 381.873 311.388 382.005C311.124 383.195 310.859 384.385 310.463 385.575V385.972C310.066 387.294 309.669 388.484 309.405 389.674C309.273 389.806 309.273 389.938 309.273 389.938C308.876 391.261 308.479 392.583 308.083 393.905C307.554 395.227 307.157 396.417 306.628 397.74C306.099 399.062 305.703 400.384 305.174 401.574C304.645 402.897 304.116 404.087 303.587 405.409H303.454C302.925 406.599 302.397 407.921 301.735 409.111C301.603 409.508 301.471 409.772 301.339 410.037C301.206 410.169 301.206 410.301 301.075 410.434C292.48 427.755 279.786 442.961 263.919 454.862C262.862 455.523 261.804 456.316 260.746 457.11C260.482 457.374 260.085 457.506 259.82 457.771C258.895 458.432 257.969 459.093 256.911 459.754L257.308 460.547H257.441C259.292 460.283 261.143 460.018 262.994 459.754H263.126C266.564 459.225 270.002 458.564 273.44 457.903C274.365 457.77 275.423 457.506 276.349 457.242C277.01 457.109 277.539 456.978 278.2 456.845C279.126 456.712 280.051 456.448 280.977 456.316C281.77 456.052 282.563 455.919 283.357 455.655C296.579 452.481 309.405 448.118 321.702 442.961C300.678 471.654 272.514 494.794 239.59 510C254.796 508.942 270.002 506.43 284.679 502.199C337.966 486.464 382.79 450.63 409.631 402.367C404.21 432.912 392.046 462.002 374.063 487.389C386.889 478.927 398.657 469.142 409.367 458.035C438.985 427.094 458.422 387.823 465.034 345.642C469.529 366.534 470.852 388.087 468.868 409.375C564.334 276.223 476.802 138.178 440.175 101.816C440.043 101.552 439.911 101.419 439.911 101.155C439.779 101.287 439.779 101.287 439.779 101.419C439.779 101.287 439.779 101.287 439.646 101.155C439.646 102.741 439.514 104.328 439.382 105.915C438.985 108.956 438.589 111.865 438.06 114.774C437.399 117.683 436.605 120.592 435.812 123.501C434.886 126.278 433.828 129.187 432.638 131.964C431.448 134.608 430.126 137.385 428.672 140.029C427.217 142.542 425.63 145.186 423.912 147.566C422.193 150.079 420.342 152.459 418.49 154.706C416.507 157.087 414.391 159.202 412.276 161.318C410.954 162.508 409.764 163.566 408.441 164.624C407.383 165.549 406.458 166.343 405.4 167.268C403.02 169.119 400.64 170.838 397.996 172.425C395.483 174.012 392.839 175.598 390.194 176.921C387.418 178.243 384.641 179.433 381.864 180.623C379.087 181.681 376.178 182.606 373.269 183.4C370.361 184.193 367.319 184.854 364.41 185.383C361.369 185.912 358.328 186.176 355.419 186.441C353.304 186.573 351.188 186.705 349.072 186.705C346.031 186.705 342.99 186.441 340.081 186.176C337.04 185.912 333.999 185.515 331.09 184.854C328.049 184.325 325.14 183.532 322.231 182.606H322.098C325.007 182.342 327.916 182.077 330.825 181.548C333.866 181.019 336.775 180.358 339.684 179.565C342.593 178.771 345.502 177.846 348.279 176.788C351.188 175.73 353.965 174.408 356.609 173.086C359.386 171.763 361.898 170.309 364.542 168.722C367.055 167.003 369.567 165.284 371.947 163.433C374.327 161.582 376.575 159.599 378.691 157.483C380.938 155.499 382.922 153.252 384.905 151.004C386.888 148.624 388.74 146.244 390.459 143.864C390.723 143.467 390.988 142.938 391.252 142.541C392.574 140.426 393.896 138.31 395.086 136.194C396.541 133.55 397.863 130.905 399.053 128.129C400.243 125.352 401.301 122.575 402.227 119.666C403.152 116.889 403.813 113.98 404.474 111.071C405.004 108.03 405.532 105.121 405.797 102.212C406.061 99.1709 406.326 96.1296 406.326 93.2207C406.326 91.105 406.193 88.9894 406.061 86.8738C405.797 83.8326 405.4 80.9235 405.004 78.0146C404.475 74.9733 403.814 72.0644 403.02 69.1553C402.095 66.3786 401.169 63.4696 400.111 60.6929C399.054 57.9161 397.731 55.1393 396.409 52.4948C394.955 49.8502 393.5 47.2057 391.913 44.6934C390.195 42.1811 388.476 39.801 386.624 37.4209C384.641 35.1731 382.658 32.9252 380.542 30.6774C379.484 29.6196 378.294 28.4295 377.104 27.3717C371.154 22.7438 364.94 18.3802 358.725 14.4135C357.799 13.8844 357.006 13.4879 356.081 13.0912C351.717 10.3144 347.618 8.85916 343.519 7.53694Z" fill="#E0234E"/>
</svg>
