<svg width="512" height="567" viewBox="0 0 512 567" fill="none" xmlns="http://www.w3.org/2000/svg">
<path d="M232.899 6.04909C246.889 -1.99818 265.111 -2.03453 279.089 6.04909C349.41 45.9805 419.754 85.8493 490.063 125.805C503.287 133.291 512.133 148.081 511.998 163.394V403.637C512.097 419.584 502.377 434.727 488.425 442.044C418.335 481.755 348.281 521.515 278.203 561.226C263.923 569.431 245.336 568.799 231.503 559.921C210.49 547.68 189.44 535.499 168.425 523.269C164.131 520.697 159.29 518.649 156.258 514.465C158.939 510.834 163.731 510.382 167.626 508.796C176.397 505.994 184.453 501.494 192.511 497.128C194.549 495.727 197.036 496.264 198.989 497.518C216.958 507.872 234.768 518.526 252.797 528.78C256.643 531.012 260.537 528.049 263.825 526.208C332.605 487.143 401.47 448.225 470.238 409.148C472.786 407.916 474.194 405.198 473.987 402.393C474.036 323.142 473.999 243.877 474.011 164.626C474.303 161.443 472.47 158.517 469.607 157.215C399.76 117.685 329.949 78.0949 260.113 38.5552C258.904 37.7193 257.47 37.2708 256.002 37.2686C254.534 37.2665 253.099 37.7107 251.887 38.5431C182.052 78.0949 112.253 117.721 42.4176 157.249C39.5642 158.553 37.6491 161.431 37.9887 164.626C38.0008 243.877 37.9887 323.142 37.9887 402.405C37.8676 403.773 38.1668 405.147 38.8458 406.339C39.5248 407.532 40.5512 408.486 41.7866 409.075C60.4225 419.695 79.0824 430.24 97.7303 440.824C108.236 446.506 121.135 449.883 132.709 445.529C142.923 441.848 150.083 431.373 149.888 420.474C149.985 341.686 149.84 262.885 149.96 184.109C149.705 180.611 153.007 177.721 156.391 178.051C165.345 177.99 174.311 177.929 183.265 178.075C187.003 177.99 189.575 181.756 189.113 185.28C189.077 264.567 189.209 343.857 189.053 423.144C189.077 444.275 180.438 467.268 160.988 477.607C137.027 490.081 107.412 487.435 83.7403 475.475C63.2478 465.196 43.6916 453.065 23.5628 442.054C9.57484 434.778 -0.0967345 419.574 0.00172955 403.639V163.394C-0.144962 147.764 9.05238 132.705 22.6886 125.328C92.7669 85.5848 162.833 45.8109 232.899 6.04909Z" fill="#8CC84B"/>
<path d="M294.035 172.467C324.599 170.49 357.319 171.295 384.823 186.427C406.117 198.022 417.923 222.358 418.299 246.132C417.704 249.339 414.368 251.108 411.322 250.888C402.454 250.876 393.584 251.009 384.717 250.827C380.955 250.973 378.769 247.487 378.296 244.145C375.748 232.77 369.575 221.504 358.921 216.017C342.566 207.788 323.603 208.202 305.769 208.373C292.749 209.068 278.749 210.201 267.719 217.895C259.251 223.723 256.679 235.488 259.701 244.963C262.551 251.766 270.366 253.961 276.76 255.985C313.593 265.666 352.625 264.702 388.756 277.443C403.714 282.637 418.347 292.733 423.467 308.473C430.165 329.567 427.229 354.781 412.295 371.716C400.183 385.652 382.544 393.237 364.951 397.356C341.547 402.6 317.259 402.734 293.491 400.405C271.141 397.845 247.884 391.944 230.63 376.641C215.877 363.768 208.671 343.709 209.386 324.349C209.557 321.08 212.796 318.8 215.913 319.068C224.843 318.996 233.773 318.971 242.703 319.08C246.27 318.824 248.915 321.922 249.098 325.3C250.745 336.138 254.798 347.514 264.203 353.939C282.352 365.706 305.126 364.9 325.907 365.23C343.125 364.462 362.452 364.23 376.502 352.794C383.915 346.272 386.111 335.359 384.108 325.971C381.937 318.045 373.687 314.351 366.601 311.936C330.24 300.377 290.772 304.571 254.762 291.5C240.143 286.308 226.007 276.492 220.39 261.399C212.553 240.038 216.144 213.616 232.644 197.253C248.732 180.976 271.955 174.708 294.035 172.465V172.467Z" fill="#8CC84B"/>
</svg>
