<svg width="512" height="528" viewBox="0 0 512 528" fill="none" xmlns="http://www.w3.org/2000/svg">
<path d="M510.645 316.22C507.568 306.899 499.506 300.407 489.081 298.849C484.166 298.115 478.536 298.428 471.874 299.801C460.262 302.197 451.648 303.109 445.361 303.286C469.091 263.218 488.388 217.525 499.496 174.514C517.459 104.965 507.86 73.281 496.643 58.9498C466.958 21.0167 423.649 0.638628 371.399 0.0150965C343.527 -0.325741 319.058 5.17778 306.293 9.1355C294.409 7.03835 281.63 5.86747 268.222 5.65094C243.088 5.24995 220.881 10.7294 201.905 21.9911C191.4 18.4383 174.54 13.43 155.069 10.2342C109.275 2.71573 72.3669 8.57412 45.3702 27.647C12.6799 50.7397 -2.47443 90.8622 0.328284 146.9C1.21842 164.692 11.1703 218.824 26.8398 270.163C35.8454 299.671 45.4484 324.175 55.3822 343.001C69.47 369.697 84.5441 385.418 101.467 391.064C110.951 394.223 128.185 396.437 146.31 381.34C148.608 384.122 151.673 386.887 155.741 389.456C160.907 392.714 167.224 395.376 173.533 396.954C196.27 402.638 217.567 401.216 235.736 393.249C235.849 396.481 235.935 399.568 236.007 402.235C236.127 406.56 236.248 410.8 236.406 414.766C237.483 441.58 239.307 462.429 244.712 477.017C245.009 477.819 245.408 479.042 245.829 480.339C248.525 488.595 253.034 502.417 264.505 513.242C276.384 524.455 290.752 527.894 303.912 527.894C310.512 527.894 316.809 527.027 322.332 525.845C342.019 521.624 364.379 515.196 380.553 492.164C395.846 470.39 403.28 437.596 404.625 385.923C404.799 384.461 404.96 383.066 405.114 381.737L405.435 379.006L409.038 379.323L409.966 379.385C430.018 380.299 454.537 376.047 469.595 369.051C481.493 363.53 519.623 343.398 510.645 316.22" fill="black"/>
<path d="M474.825 320.881C415.476 333.18 411.395 312.994 411.395 312.994C474.057 219.589 500.253 101.024 477.649 72.0053C415.977 -7.15102 309.221 30.2851 307.439 31.2554L306.867 31.3596C295.14 28.9138 282.019 27.4584 267.27 27.2159C240.417 26.7748 220.045 34.2885 204.587 46.0642C204.587 46.0642 14.1463 -32.7493 23.0048 145.185C24.8887 183.039 77.014 431.606 139.185 356.527C161.909 329.072 183.867 305.86 183.867 305.86C194.771 313.137 207.826 316.849 221.512 315.516L222.576 314.61C222.245 318.018 222.396 321.352 223.001 325.299C206.984 343.276 211.692 346.431 179.674 353.053C147.276 359.76 166.308 371.701 178.734 374.824C193.799 378.607 228.651 383.967 252.199 350.851L251.261 354.63C257.535 359.68 261.941 387.474 261.203 412.671C260.465 437.866 259.972 455.165 264.915 468.677C269.862 482.189 274.789 512.59 316.881 503.531C352.049 495.959 370.275 476.339 372.812 443.61C374.61 420.343 378.683 423.783 378.938 402.98L382.205 393.133C385.971 361.593 382.804 351.417 404.47 356.15L409.738 356.615C425.683 357.343 446.557 354.037 458.808 348.318C485.186 336.021 500.832 315.486 474.821 320.881H474.825" fill="#336791"/>
<path d="M495.583 319.307C493.314 312.441 486.012 310.233 473.881 312.74C437.861 320.181 424.962 315.026 420.727 311.905C448.724 269.213 471.756 217.607 484.182 169.459C490.067 146.651 493.318 125.47 493.584 108.205C493.878 89.256 490.653 75.3312 484.004 66.825C457.193 32.5336 417.842 14.1394 370.21 13.6348C337.463 13.2664 309.796 21.6545 304.432 24.0133C293.137 21.2019 280.824 19.4759 267.419 19.2556C242.836 18.8571 221.586 24.7482 203.994 36.7567C196.352 33.9093 176.603 27.1231 152.45 23.2284C110.695 16.5003 77.5145 21.5984 53.8362 38.3887C25.5828 58.4248 12.5393 94.24 15.066 144.837C15.9162 161.86 25.6068 214.227 40.8988 264.377C61.0281 330.385 82.9099 367.752 105.932 375.439C108.627 376.338 111.733 376.967 115.16 376.967C123.559 376.967 133.855 373.178 144.568 360.287C157.635 344.597 171.151 329.288 185.101 314.38C194.151 319.241 204.094 321.957 214.263 322.229C214.283 322.495 214.309 322.762 214.333 323.026C212.582 325.115 210.868 327.235 209.191 329.384C202.145 338.336 200.679 340.201 177.999 344.874C171.547 346.208 154.413 349.742 154.161 361.765C153.889 374.901 174.416 380.417 176.755 381.002C184.905 383.044 192.757 384.052 200.245 384.052C218.456 384.052 234.482 378.06 247.289 366.468C246.895 413.297 248.846 459.441 254.463 473.499C259.064 485.009 270.303 513.137 305.805 513.135C311.014 513.135 316.748 512.529 323.055 511.175C360.107 503.225 376.197 486.834 382.421 450.696C385.752 431.383 391.467 385.265 394.156 360.527C399.829 362.299 407.133 363.11 415.029 363.108C431.498 363.108 450.501 359.606 462.418 354.069C475.805 347.846 499.964 332.575 495.583 319.307V319.307ZM407.347 152.146C407.225 159.449 406.221 166.079 405.157 172.999C404.01 180.442 402.826 188.137 402.528 197.479C402.234 206.57 403.368 216.021 404.465 225.162C406.681 243.624 408.956 262.631 400.151 281.386C398.689 278.792 397.386 276.111 396.25 273.358C395.156 270.703 392.78 266.438 389.489 260.535C376.687 237.555 346.709 183.742 362.055 161.783C366.627 155.248 378.228 148.528 407.347 152.146V152.146ZM372.05 28.4227C414.729 29.3658 448.49 45.3471 472.393 75.9199C490.725 99.3702 470.538 206.073 412.097 298.126C411.509 297.378 410.918 296.632 410.324 295.889L409.584 294.964C424.686 270 421.733 245.3 419.104 223.402C418.024 214.415 417.004 205.927 417.264 197.953C417.532 189.503 418.648 182.254 419.729 175.246C421.055 166.609 422.405 157.673 422.033 147.138C422.311 146.032 422.423 144.727 422.277 143.177C421.327 133.075 409.804 102.84 386.318 75.4754C373.47 60.5074 354.736 43.7571 329.155 32.4595C340.158 30.1768 355.204 28.0482 372.05 28.4227V28.4227ZM133.231 350.852C121.428 365.057 113.278 362.333 110.597 361.44C93.1326 355.609 72.8672 318.661 55.0005 260.07C39.5405 209.373 30.5061 158.393 29.7899 144.098C27.5333 98.8876 38.4822 67.3796 62.3345 50.4472C101.153 22.894 164.974 39.3859 190.618 47.75C190.25 48.1144 189.866 48.4548 189.502 48.8253C147.419 91.3646 148.417 164.044 148.521 168.488C148.517 170.202 148.661 172.629 148.857 175.967C149.581 188.191 150.93 210.943 147.329 236.708C143.984 260.651 151.358 284.085 167.556 301.003C169.219 302.736 170.966 304.386 172.792 305.945C165.582 313.675 149.912 330.767 133.231 350.852V350.852ZM178.201 290.793C165.146 277.157 159.216 258.19 161.931 238.75C165.732 211.533 164.329 187.829 163.575 175.094C163.469 173.311 163.375 171.75 163.321 170.518C169.469 165.061 197.958 149.783 218.276 154.443C227.546 156.567 233.195 162.887 235.544 173.756C247.699 230.03 237.153 253.484 228.678 272.333C226.932 276.216 225.281 279.886 223.873 283.683L222.781 286.618C220.016 294.039 217.443 300.939 215.849 307.491C201.969 307.451 188.468 301.516 178.201 290.791V290.793ZM180.332 366.685C176.278 365.671 172.634 363.911 170.495 362.452C172.281 361.611 175.46 360.465 180.974 359.328C207.655 353.831 211.776 349.95 220.774 338.515C222.837 335.892 225.175 332.92 228.414 329.3L228.418 329.296C233.241 323.889 235.448 324.806 239.449 326.468C242.692 327.81 245.851 331.879 247.131 336.356C247.737 338.471 248.417 342.483 246.191 345.607C227.394 371.951 200.003 371.613 180.332 366.685V366.685ZM319.966 496.745C287.326 503.746 275.769 487.076 268.153 468.019C263.237 455.716 260.821 400.237 262.535 338.969C262.557 338.154 262.441 337.367 262.217 336.626C262.017 335.163 261.712 333.717 261.305 332.297C258.756 323.382 252.545 315.925 245.093 312.834C242.132 311.606 236.698 309.353 230.169 311.026C231.561 305.283 233.976 298.797 236.594 291.774L237.693 288.821C238.929 285.491 240.481 282.041 242.122 278.388C250.99 258.668 263.135 231.658 249.954 170.638C245.017 147.783 228.528 136.621 203.534 139.214C188.55 140.766 174.84 146.817 168.002 150.288C166.532 151.033 165.188 151.753 163.931 152.454C165.84 129.426 173.05 86.3906 200.021 59.1617C217.003 42.0211 239.619 33.5548 267.174 34.0114C321.469 34.9005 356.286 62.7901 375.935 86.0321C392.868 106.058 402.036 126.233 405.695 137.114C378.178 134.312 359.463 139.749 349.976 153.325C329.337 182.857 361.267 240.174 376.613 267.721C379.428 272.769 381.857 277.133 382.621 278.987C387.618 291.109 394.088 299.203 398.811 305.11C400.26 306.921 401.664 308.677 402.732 310.211C394.398 312.615 379.428 318.172 380.792 345.948C379.692 359.884 371.868 425.135 367.893 448.189C362.646 478.646 351.449 489.989 319.966 496.748V496.745ZM456.21 340.685C447.688 344.644 433.426 347.614 419.879 348.252C404.915 348.953 397.297 346.574 395.504 345.111C394.664 327.802 401.1 325.994 407.912 324.079C408.982 323.779 410.026 323.485 411.034 323.132C411.661 323.643 412.347 324.149 413.099 324.646C425.126 332.592 446.578 333.449 476.864 327.191L477.196 327.125C473.111 330.948 466.121 336.078 456.21 340.685Z" fill="white"/>
</svg>
