<svg width="512" height="512" viewBox="0 0 512 512" fill="none" xmlns="http://www.w3.org/2000/svg">
<path d="M377.905 97.5237H402.286C409.113 97.5237 414.476 102.887 414.476 109.714C414.476 116.541 409.113 121.905 402.286 121.905H377.905C371.078 121.905 365.714 116.541 365.714 109.714C365.714 102.887 371.078 97.5237 377.905 97.5237Z" fill="#56B3B4"/>
<path d="M12.1905 487.62H134.095C140.922 487.62 146.286 492.984 146.286 499.811C146.286 506.637 140.922 512.001 134.095 512.001H12.1905C5.3638 512.001 0 506.637 0 499.811C0 492.984 5.3638 487.62 12.1905 487.62Z" fill="#EA5E5E"/>
<path d="M304.762 292.573H377.904C384.731 292.573 390.095 297.936 390.095 304.762C390.095 311.589 384.731 316.952 377.904 316.952H304.762C297.936 316.952 292.572 311.589 292.572 304.762C292.572 297.936 297.936 292.573 304.762 292.573Z" fill="#BF85BF"/>
<path d="M158.477 292.573H256.001C262.827 292.573 268.191 297.936 268.191 304.762C268.191 311.589 262.827 316.952 256.001 316.952H158.477C151.65 316.952 146.286 311.589 146.286 304.762C146.286 297.936 151.65 292.573 158.477 292.573Z" fill="#EA5E5E"/>
<path d="M12.1905 292.573H109.714C116.541 292.573 121.905 297.936 121.905 304.762C121.905 311.589 116.541 316.952 109.714 316.952H12.1905C5.36382 316.952 0 311.589 0 304.762C0 297.936 5.36382 292.573 12.1905 292.573Z" fill="#56B3B4"/>
<path d="M12.1905 390.095H134.095C140.922 390.095 146.286 395.459 146.286 402.285C146.286 409.112 140.922 414.476 134.095 414.476H12.1905C5.3638 414.476 0 409.112 0 402.285C0 395.459 5.3638 390.095 12.1905 390.095Z" fill="#BF85BF"/>
<path d="M12.1905 195.048H134.095C140.922 195.048 146.286 200.411 146.286 207.238C146.286 214.065 140.922 219.429 134.095 219.429H12.1905C5.3638 219.429 0 214.065 0 207.238C0 200.411 5.3638 195.048 12.1905 195.048Z" fill="#BF85BF"/>
<path d="M134.095 48.7625H377.904C384.731 48.7625 390.095 54.1263 390.095 60.953C390.095 67.7797 384.731 73.1436 377.904 73.1436H134.095C127.269 73.1436 121.905 67.7797 121.905 60.953C121.905 54.1263 127.269 48.7625 134.095 48.7625Z" fill="#F7BA3E"/>
<path d="M12.1905 48.7625H85.3333C92.16 48.7625 97.5238 54.1263 97.5238 60.953C97.5238 67.7797 92.16 73.1436 85.3333 73.1436H12.1905C5.36381 73.1436 0 67.7797 0 60.953C0 54.1263 5.36381 48.7625 12.1905 48.7625Z" fill="#EA5E5E"/>
<path d="M109.714 438.857H134.096C140.922 438.857 146.286 444.221 146.286 451.048C146.286 457.875 140.922 463.238 134.096 463.238H109.714C102.888 463.238 97.5239 457.875 97.5239 451.048C97.5239 444.221 102.888 438.857 109.714 438.857Z" fill="#F7BA3E"/>
<path d="M109.714 146.286H134.096C140.922 146.286 146.286 151.65 146.286 158.476C146.286 165.303 140.922 170.667 134.096 170.667H109.714C102.888 170.667 97.5239 165.303 97.5239 158.476C97.5239 151.65 102.888 146.286 109.714 146.286Z" fill="#56B3B4"/>
<path d="M12.1905 438.857H60.9525C67.7792 438.857 73.143 444.221 73.143 451.048C73.143 457.875 67.7792 463.238 60.9525 463.238H12.1905C5.36382 463.238 0 457.875 0 451.048C0 444.221 5.36382 438.857 12.1905 438.857Z" fill="#56B3B4"/>
<path d="M12.1905 146.286H60.9525C67.7792 146.286 73.143 151.65 73.143 158.476C73.143 165.303 67.7792 170.667 60.9525 170.667H12.1905C5.36382 170.667 0 165.303 0 158.476C0 151.65 5.36382 146.286 12.1905 146.286Z" fill="#F7BA3E"/>
<path opacity="0.5" d="M329.143 438.857H353.524C360.35 438.857 365.714 444.221 365.714 451.048C365.714 457.875 360.35 463.238 353.524 463.238H329.143C322.317 463.238 316.953 457.875 316.953 451.048C316.953 444.221 322.317 438.857 329.143 438.857Z" fill="#D0D4D8"/>
<path opacity="0.5" d="M182.857 438.857H280.381C287.208 438.857 292.571 444.221 292.571 451.048C292.571 457.875 287.208 463.238 280.381 463.238H182.857C176.03 463.238 170.666 457.875 170.666 451.048C170.666 444.221 176.03 438.857 182.857 438.857Z" fill="#D0D4D8"/>
<path opacity="0.5" d="M402.286 438.857H499.81C506.636 438.857 512 444.221 512 451.048C512 457.875 506.636 463.238 499.81 463.238H402.286C395.459 463.238 390.095 457.875 390.095 451.048C390.095 444.221 395.459 438.857 402.286 438.857Z" fill="#D0D4D8"/>
<path d="M207.238 243.81H402.285C409.112 243.81 414.476 249.174 414.476 256C414.476 262.827 409.112 268.19 402.285 268.19H207.238C200.411 268.19 195.047 262.827 195.047 256C195.047 249.174 200.411 243.81 207.238 243.81Z" fill="#56B3B4"/>
<path d="M85.3331 243.81H158.476C165.303 243.81 170.666 249.174 170.666 256C170.666 262.827 165.303 268.19 158.476 268.19H85.3331C78.5064 268.19 73.1426 262.827 73.1426 256C73.1426 249.174 78.5064 243.81 85.3331 243.81Z" fill="#F7BA3E"/>
<path d="M12.1905 243.81H36.5715C43.3981 243.81 48.7619 249.174 48.7619 256C48.7619 262.827 43.3981 268.19 36.5715 268.19H12.1905C5.36381 268.19 0 262.827 0 256C0 249.174 5.36381 243.81 12.1905 243.81Z" fill="#EA5E5E"/>
<path d="M231.619 97.5237H329.143C335.969 97.5237 341.333 102.887 341.333 109.714C341.333 116.541 335.969 121.905 329.143 121.905H231.619C224.793 121.905 219.429 116.541 219.429 109.714C219.429 102.887 224.793 97.5237 231.619 97.5237Z" fill="#BF85BF"/>
<path d="M12.1905 97.5237H182.857C189.684 97.5237 195.047 102.887 195.047 109.714C195.047 116.541 189.684 121.905 182.857 121.905H12.1905C5.3638 121.905 0 116.541 0 109.714C0 102.887 5.3638 97.5237 12.1905 97.5237Z" fill="#56B3B4"/>
<path d="M85.3331 341.333H304.762C311.589 341.333 316.953 346.696 316.953 353.523C316.953 360.35 311.589 365.714 304.762 365.714H85.3331C78.5064 365.714 73.1426 360.35 73.1426 353.523C73.1426 346.696 78.5064 341.333 85.3331 341.333Z" fill="#F7BA3E"/>
<path d="M12.1905 341.333H36.5715C43.3981 341.333 48.7619 346.696 48.7619 353.523C48.7619 360.35 43.3981 365.714 36.5715 365.714H12.1905C5.36381 365.714 0 360.35 0 353.523C0 346.696 5.36381 341.333 12.1905 341.333Z" fill="#BF85BF"/>
<path d="M304.762 146.286H426.666C433.493 146.286 438.857 151.65 438.857 158.476C438.857 165.303 433.493 170.667 426.666 170.667H304.762C297.936 170.667 292.572 165.303 292.572 158.476C292.572 151.65 297.936 146.286 304.762 146.286Z" fill="#EA5E5E"/>
<path d="M304.762 195.048H426.666C433.493 195.048 438.857 200.411 438.857 207.238C438.857 214.065 433.493 219.429 426.666 219.429H304.762C297.936 219.429 292.572 214.065 292.572 207.238C292.572 200.411 297.936 195.048 304.762 195.048Z" fill="#F7BA3E"/>
<path d="M12.1905 0H304.762C311.589 0 316.952 5.36381 316.952 12.1905C316.952 19.0171 311.589 24.381 304.762 24.381H12.1905C5.36381 24.381 0 19.0171 0 12.1905C0 5.36381 5.36381 0 12.1905 0Z" fill="#56B3B4"/>
<path opacity="0.5" d="M353.524 0H499.81C506.637 0 512.001 5.36381 512.001 12.1905C512.001 19.0171 506.637 24.381 499.81 24.381H353.524C346.698 24.381 341.334 19.0171 341.334 12.1905C341.334 5.36381 346.698 0 353.524 0Z" fill="#D0D4D8"/>
<path opacity="0.5" d="M353.524 341.333H402.286C409.113 341.333 414.477 346.696 414.477 353.523C414.477 360.35 409.113 365.714 402.286 365.714H353.524C346.698 365.714 341.334 360.35 341.334 353.523C341.334 346.696 346.698 341.333 353.524 341.333Z" fill="#D0D4D8"/>
<path opacity="0.5" d="M451.048 341.333H499.81C506.637 341.333 512.001 346.696 512.001 353.523C512.001 360.35 506.637 365.714 499.81 365.714H451.048C444.221 365.714 438.857 360.35 438.857 353.523C438.857 346.696 444.221 341.333 451.048 341.333Z" fill="#D0D4D8"/>
<path opacity="0.5" d="M426.667 292.573H499.81C506.636 292.573 512 297.936 512 304.762C512 311.589 506.636 316.952 499.81 316.952H426.667C419.84 316.952 414.476 311.589 414.476 304.762C414.476 297.936 419.84 292.573 426.667 292.573Z" fill="#D0D4D8"/>
<path opacity="0.5" d="M426.667 48.7625H499.81C506.636 48.7625 512 54.1263 512 60.953C512 67.7797 506.636 73.1436 499.81 73.1436H426.667C419.84 73.1436 414.476 67.7797 414.476 60.953C414.476 54.1263 419.84 48.7625 426.667 48.7625Z" fill="#D0D4D8"/>
<path opacity="0.5" d="M451.048 243.81H499.81C506.637 243.81 512.001 249.174 512.001 256C512.001 262.827 506.637 268.19 499.81 268.19H451.048C444.221 268.19 438.857 262.827 438.857 256C438.857 249.174 444.221 243.81 451.048 243.81Z" fill="#D0D4D8"/>
<path opacity="0.5" d="M451.048 97.5237H499.81C506.637 97.5237 512.001 102.887 512.001 109.714C512.001 116.541 506.637 121.905 499.81 121.905H451.048C444.221 121.905 438.857 116.541 438.857 109.714C438.857 102.887 444.221 97.5237 451.048 97.5237Z" fill="#D0D4D8"/>
<path opacity="0.5" d="M475.429 146.286H499.81C506.637 146.286 512 151.65 512 158.476C512 165.303 506.637 170.667 499.81 170.667H475.429C468.602 170.667 463.238 165.303 463.238 158.476C463.238 151.65 468.602 146.286 475.429 146.286Z" fill="#D0D4D8"/>
<path opacity="0.5" d="M475.429 195.048H499.81C506.637 195.048 512 200.411 512 207.238C512 214.065 506.637 219.429 499.81 219.429H475.429C468.602 219.429 463.238 214.065 463.238 207.238C463.238 200.411 468.602 195.048 475.429 195.048Z" fill="#D0D4D8"/>
<path opacity="0.5" d="M280.382 390.095H499.81C506.636 390.095 512 395.459 512 402.285C512 409.112 506.636 414.476 499.81 414.476H280.382C273.555 414.476 268.191 409.112 268.191 402.285C268.191 395.459 273.555 390.095 280.382 390.095Z" fill="#D0D4D8"/>
<path opacity="0.5" d="M182.856 390.095H231.618C238.445 390.095 243.809 395.459 243.809 402.285C243.809 409.112 238.445 414.476 231.618 414.476H182.856C176.03 414.476 170.666 409.112 170.666 402.285C170.666 395.459 176.03 390.095 182.856 390.095Z" fill="#D0D4D8"/>
<path opacity="0.5" d="M377.905 487.62H499.81C506.637 487.62 512.001 492.984 512.001 499.811C512.001 506.637 506.637 512.001 499.81 512.001H377.905C371.078 512.001 365.714 506.637 365.714 499.811C365.714 492.984 371.078 487.62 377.905 487.62Z" fill="#D0D4D8"/>
<path opacity="0.5" d="M182.856 487.62H329.142C335.969 487.62 341.332 492.984 341.332 499.811C341.332 506.637 335.969 512.001 329.142 512.001H182.856C176.03 512.001 170.666 506.637 170.666 499.811C170.666 492.984 176.03 487.62 182.856 487.62Z" fill="#D0D4D8"/>
<path opacity="0.5" d="M182.857 146.286H256C262.827 146.286 268.19 151.65 268.19 158.476C268.19 165.303 262.827 170.667 256 170.667H182.857C176.03 170.667 170.666 165.303 170.666 158.476C170.666 151.65 176.03 146.286 182.857 146.286Z" fill="#D0D4D8"/>
<path opacity="0.5" d="M182.857 195.048H256C262.827 195.048 268.19 200.411 268.19 207.238C268.19 214.065 262.827 219.429 256 219.429H182.857C176.03 219.429 170.666 214.065 170.666 207.238C170.666 200.411 176.03 195.048 182.857 195.048Z" fill="#D0D4D8"/>
</svg>
