<svg width="512" height="628" viewBox="0 0 512 628" fill="none" xmlns="http://www.w3.org/2000/svg">
<path fill-rule="evenodd" clip-rule="evenodd" d="M4.86085 431.056C-1.52935 420.978 -1.62589 408.142 4.61198 397.968L239.48 14.929C252.543 -6.37548 284.087 -4.51267 294.551 18.181L509.114 483.524C517.074 500.79 507.911 521.105 489.695 526.569L155.926 626.679C142.497 630.706 128.028 625.309 120.521 613.47L4.86085 431.056ZM266.578 126.926C268.841 115.658 284.284 114.033 288.845 124.583L436.847 466.983C439.632 473.43 436.165 480.865 429.434 482.872L198.826 551.698C190.35 554.227 182.23 546.823 183.972 538.151L266.578 126.926Z" fill="#2D3748"/>
</svg>
