<svg width="260" height="314" viewBox="0 0 260 314" fill="none" xmlns="http://www.w3.org/2000/svg">
<path fill-rule="evenodd" clip-rule="evenodd" d="M259.855 33C259.951 32.5029 260 32.0028 260 31.5C260 14.103 201.797 0 130 0C58.203 0 0 14.103 0 31.5C0 32.0028 0.0486246 32.5029 0.144797 33H0V279.5V280H0.0133746C1.02097 298.823 58.8321 314 130 314C201.168 314 258.979 298.823 259.987 280H260V279.5V33H259.855Z" fill="#E0234E"/>
<path d="M53.06 230.912C49.032 230.912 45.175 230.608 41.489 230C37.841 229.43 34.668 228.746 31.97 227.948C29.272 227.112 27.372 226.352 26.27 225.668L28.892 209.138C30.298 209.936 32.198 210.753 34.592 211.589C36.986 212.425 39.627 213.147 42.515 213.755C45.441 214.325 48.386 214.61 51.35 214.61C55.34 214.61 58.228 214.04 60.014 212.9C61.838 211.76 62.75 209.936 62.75 207.428C62.75 205.604 62.199 204.065 61.097 202.811C59.995 201.519 58.171 200.208 55.625 198.878C53.117 197.548 49.754 195.876 45.536 193.862C41.964 192.152 38.677 190.138 35.675 187.82C32.673 185.464 30.26 182.652 28.436 179.384C26.612 176.078 25.7 172.164 25.7 167.642C25.7 163.766 26.422 160.384 27.866 157.496C29.348 154.57 31.419 152.138 34.079 150.2C36.777 148.262 39.969 146.818 43.655 145.868C47.341 144.88 51.426 144.386 55.91 144.386C62.294 144.386 67.5 144.975 71.528 146.153C75.556 147.331 78.33 148.376 79.85 149.288L76.544 165.134C74.834 163.804 72.193 162.588 68.621 161.486C65.087 160.346 61.458 159.776 57.734 159.776C55.074 159.776 52.889 160.08 51.179 160.688C49.469 161.258 48.196 162.075 47.36 163.139C46.524 164.203 46.106 165.438 46.106 166.844C46.106 168.554 46.6 170.074 47.588 171.404C48.614 172.696 50.191 173.988 52.319 175.28C54.485 176.534 57.278 177.94 60.698 179.498C64.346 181.132 67.595 182.804 70.445 184.514C73.333 186.224 75.784 188.086 77.798 190.1C79.812 192.114 81.332 194.413 82.358 196.997C83.422 199.543 83.954 202.488 83.954 205.832C83.954 210.886 82.757 215.294 80.363 219.056C78.007 222.818 74.53 225.744 69.932 227.834C65.334 229.886 59.71 230.912 53.06 230.912ZM156.188 249.722C149.918 249.722 144.864 249.076 141.026 247.784C137.188 246.492 134.167 244.364 131.963 241.4C129.759 238.474 127.954 234.522 126.548 229.544L136.694 226.922H142.508C143.154 229.164 144.066 230.817 145.244 231.881C146.422 232.983 148.075 233.705 150.203 234.047C152.331 234.389 155.124 234.56 158.582 234.56C160.178 234.56 161.755 234.389 163.313 234.047C164.871 233.705 166.22 233.344 167.36 232.964V247.214C166.334 247.708 164.89 248.24 163.028 248.81C161.166 249.418 158.886 249.722 156.188 249.722ZM132.248 230.912C123.888 231.064 116.744 229.373 110.816 225.839C104.926 222.267 100.442 217.194 97.3641 210.62C94.3241 204.008 92.8801 196.218 93.0321 187.25C93.2221 177.218 95.0651 169.105 98.5611 162.911C102.095 156.679 106.902 152.1 112.982 149.174C119.062 146.21 126.016 144.614 133.844 144.386C141.862 144.158 148.74 145.792 154.478 149.288C160.216 152.746 164.586 157.743 167.588 164.279C170.628 170.815 172.072 178.548 171.92 187.478C171.73 197.51 169.944 205.699 166.562 212.045C163.18 218.391 158.544 223.084 152.654 226.124C146.764 229.164 139.962 230.76 132.248 230.912ZM132.59 215.636C138.062 215.636 142.375 213.432 145.529 209.024C148.683 204.578 150.26 197.206 150.26 186.908C150.26 181.588 149.652 176.914 148.436 172.886C147.22 168.858 145.377 165.723 142.907 163.481C140.437 161.239 137.302 160.118 133.502 160.118C130.044 160.118 126.89 160.973 124.04 162.683C121.19 164.393 118.91 167.262 117.2 171.29C115.528 175.318 114.692 180.828 114.692 187.82C114.692 193.216 115.357 198.004 116.687 202.184C118.017 206.364 119.993 209.651 122.615 212.045C125.275 214.439 128.6 215.636 132.59 215.636ZM186.649 230V145.298H207.625V212.9H236.239V230H186.649Z" fill="white"/>
</svg>
