<svg width="512" height="512" viewBox="0 0 512 512" fill="none" xmlns="http://www.w3.org/2000/svg">
<path d="M510.306 74.7117L269.794 505.3C264.828 514.191 252.07 514.243 247.03 505.396L1.74936 74.7517C-3.74265 65.1122 4.49136 53.4343 15.4034 55.3887L256.174 98.474C257.71 98.7488 259.283 98.7461 260.818 98.4659L496.552 55.4487C507.428 53.4644 515.7 65.0522 510.306 74.7117V74.7117Z" fill="url(#paint0_linear_1918_951)"/>
<path d="M370.712 0.126257L193.2 35.0136C191.781 35.2923 190.496 36.0358 189.544 37.1273C188.593 38.2189 188.031 39.5964 187.946 41.0435L177.027 226.015C176.967 227.03 177.143 228.044 177.542 228.979C177.941 229.913 178.552 230.741 179.326 231.397C180.1 232.053 181.016 232.519 182 232.758C182.985 232.997 184.012 233.002 184.999 232.774L234.422 221.334C239.046 220.264 243.225 224.349 242.273 229.012L227.59 301.13C226.603 305.983 231.145 310.133 235.87 308.692L266.397 299.391C271.129 297.951 275.677 302.112 274.675 306.97L251.341 420.248C249.881 427.335 259.278 431.198 263.196 425.124L265.815 421.067L410.463 131.533C412.886 126.685 408.707 121.157 403.401 122.186L352.527 132.033C347.747 132.957 343.68 128.492 345.028 123.802L378.232 8.35492C379.583 3.6534 375.5 -0.814047 370.714 0.126257H370.712Z" fill="url(#paint1_linear_1918_951)"/>
<defs>
<linearGradient id="paint0_linear_1918_951" x1="-4.23936" y1="90.1288" x2="255.552" y2="442.528" gradientUnits="userSpaceOnUse">
<stop stop-color="#41D1FF"/>
<stop offset="1" stop-color="#BD34FE"/>
</linearGradient>
<linearGradient id="paint1_linear_1918_951" x1="278.581" y1="9.59885" x2="332.113" y2="375.72" gradientUnits="userSpaceOnUse">
<stop stop-color="#FFEA83"/>
<stop offset="0.083" stop-color="#FFDD35"/>
<stop offset="1" stop-color="#FFA800"/>
</linearGradient>
</defs>
</svg>
