<svg width="512" height="512" viewBox="0 0 512 512" fill="none" xmlns="http://www.w3.org/2000/svg">
<path d="M511.711 115.828C511.901 116.51 511.998 117.214 512 117.921V227.821C512 229.231 511.617 230.617 510.889 231.837C510.161 233.058 509.114 234.07 507.855 234.772L412.898 287.879V393.141C412.898 396.005 411.33 398.65 408.773 400.092L210.558 510.933C210.104 511.183 209.609 511.344 209.114 511.514C208.929 511.574 208.753 511.684 208.557 511.734C207.172 512.089 205.715 512.089 204.33 511.734C204.103 511.674 203.897 511.554 203.68 511.474C203.226 511.313 202.752 511.173 202.319 510.933L4.14516 400.092C2.88622 399.389 1.84017 398.377 1.11244 397.156C0.3847 395.936 0.000997514 394.551 0 393.141L0 63.4423C0 62.7211 0.103114 62.02 0.288718 61.3389C0.350586 61.1085 0.494945 60.8981 0.577436 60.6678C0.732106 60.2471 0.876465 59.8164 1.10331 59.4257C1.25799 59.1653 1.48484 58.955 1.67044 58.7146C1.9076 58.394 2.12414 58.0635 2.40255 57.7831C2.63971 57.5527 2.94905 57.3824 3.21714 57.1821C3.51617 56.9417 3.78427 56.6812 4.12454 56.4909H4.13485L103.227 1.07046C104.482 0.36912 105.904 0 107.352 0C108.799 0 110.221 0.36912 111.476 1.07046L210.568 56.4909H210.589C210.919 56.6913 211.197 56.9417 211.496 57.1721C211.764 57.3724 212.063 57.5527 212.3 57.773C212.589 58.0635 212.795 58.394 213.043 58.7146C213.218 58.955 213.455 59.1653 213.6 59.4257C213.837 59.8264 213.971 60.2471 214.136 60.6678C214.218 60.8981 214.363 61.1085 214.425 61.3489C214.614 62.0315 214.712 62.7352 214.713 63.4423V269.368L297.287 223.183V117.911C297.287 117.21 297.39 116.499 297.575 115.828C297.648 115.587 297.782 115.377 297.864 115.147C298.029 114.726 298.173 114.295 298.4 113.905C298.555 113.644 298.782 113.434 298.957 113.194C299.205 112.873 299.411 112.542 299.7 112.262C299.937 112.032 300.236 111.861 300.504 111.661C300.813 111.421 301.081 111.16 301.411 110.97H301.422L400.524 55.5494C401.778 54.8471 403.201 54.4774 404.648 54.4774C406.096 54.4774 407.519 54.8471 408.773 55.5494L507.865 110.97C508.216 111.17 508.484 111.421 508.793 111.651C509.051 111.851 509.35 112.032 509.587 112.252C509.876 112.542 510.082 112.873 510.33 113.194C510.515 113.434 510.742 113.644 510.886 113.905C511.124 114.295 511.258 114.726 511.423 115.147C511.515 115.377 511.649 115.587 511.711 115.828ZM495.481 223.183V131.794L460.804 151.186L412.898 177.979V269.368L495.492 223.183H495.481ZM396.389 388.503V297.054L349.266 323.196L214.703 397.798V490.109L396.389 388.503ZM16.5188 77.3149V388.503L198.184 490.099V397.808L103.279 345.633L103.248 345.613L103.206 345.593C102.887 345.413 102.619 345.152 102.32 344.932C102.062 344.732 101.763 344.571 101.536 344.351L101.515 344.321C101.247 344.07 101.062 343.76 100.835 343.479C100.629 343.209 100.381 342.979 100.216 342.698L100.206 342.668C100.02 342.368 99.9067 342.007 99.7727 341.667C99.6386 341.366 99.4633 341.086 99.3808 340.765V340.755C99.2777 340.374 99.2571 339.974 99.2159 339.583C99.1746 339.283 99.0921 338.982 99.0921 338.682V123.5L51.1959 96.6966L16.5188 77.325V77.3149ZM107.362 17.2769L24.7988 63.4423L107.341 109.608L189.894 63.4323L107.341 17.2769H107.362ZM150.298 305.387L198.195 278.604V77.3149L163.517 96.7066L115.611 123.5V324.789L150.298 305.387ZM404.648 71.7559L322.096 117.921L404.648 164.087L487.191 117.911L404.648 71.7559ZM396.389 177.979L348.483 151.186L313.805 131.794V223.183L361.702 249.967L396.389 269.368V177.979ZM206.433 383.926L327.52 316.776L388.047 283.221L305.556 237.086L210.578 290.202L124.015 338.612L206.433 383.926Z" fill="#FF2D20"/>
</svg>
