<svg width="512" height="509" viewBox="0 0 512 509" fill="none" xmlns="http://www.w3.org/2000/svg">
<path d="M471.605 393.677C443.748 392.974 422.158 395.795 404.05 403.553C398.826 405.667 390.468 405.669 389.771 412.371C392.557 415.192 392.906 419.777 395.343 423.655C399.527 430.707 406.834 440.23 413.451 445.17C420.763 450.812 428.078 456.453 435.736 461.391C449.318 469.856 464.642 474.792 477.874 483.256C485.538 488.19 493.194 494.543 500.856 499.832C504.686 502.649 507.122 507.238 512 509V507.944C509.56 504.767 508.864 500.184 506.428 496.657C502.949 493.13 499.462 489.956 495.98 486.429C485.882 472.677 473.347 460.685 459.766 450.811C448.624 443.052 424.245 432.473 419.72 419.423C419.72 419.423 419.37 419.072 419.023 418.719C426.683 418.014 435.736 415.192 443.052 413.076C454.891 409.9 465.685 410.607 477.874 407.433C483.444 406.022 489.017 404.258 494.587 402.495V399.322C488.322 392.974 483.795 384.511 477.178 378.515C459.418 362.994 439.915 347.831 419.72 335.136C408.924 328.082 394.993 323.497 383.502 317.503C379.327 315.384 372.36 314.328 369.924 310.801C363.653 303.044 360.171 292.817 355.645 283.647C345.55 264.248 335.796 242.737 327.09 222.284C320.825 208.528 316.994 194.773 309.332 182.08C273.465 122.125 234.463 85.8008 174.57 50.1794C161.684 42.7746 146.362 39.6003 129.996 35.7225C121.293 35.3678 112.585 34.6644 103.88 34.3097C98.3079 31.8407 92.7357 25.1413 87.86 21.967C68.0149 9.26953 16.822 -18.2355 2.19694 18.0892C-7.2062 41.0111 16.1275 63.5803 24.1336 75.2216C30.0581 83.3318 37.7159 92.5002 41.8951 101.671C44.3329 107.662 45.0275 114.015 47.4653 120.362C53.0395 135.875 58.2595 153.16 65.5751 167.621C69.406 175.025 73.5831 182.783 78.4588 189.484C81.245 193.362 86.1187 195.128 87.1655 201.474C82.2918 208.528 81.9415 219.11 79.1534 227.925C66.6178 267.777 71.4956 317.15 89.253 346.421C94.8233 355.234 108.057 374.637 125.817 367.228C141.489 360.881 138.006 340.779 142.529 323.146C143.578 318.909 142.882 316.092 144.969 313.27V313.978C149.845 323.849 154.719 333.374 159.246 343.248C170.042 360.527 188.845 378.515 204.515 390.507C212.875 396.851 219.49 407.785 229.938 411.665V410.605H229.239C227.15 407.431 224.015 406.022 221.231 403.551C214.964 397.206 207.997 389.447 203.123 382.393C188.5 362.641 175.613 340.777 164.122 318.206C158.552 307.276 153.674 295.284 149.149 284.352C147.057 280.116 147.057 273.771 143.576 271.657C138.352 279.414 130.693 286.116 126.862 295.637C120.249 310.801 119.55 329.493 117.112 348.887C115.719 349.244 116.414 348.887 115.717 349.597C104.577 346.771 100.746 335.136 96.5646 325.26C86.1167 300.222 84.3753 260.018 93.4322 231.1C95.8701 223.693 106.318 200.418 102.139 193.364C100.049 186.663 93.0819 182.783 89.253 177.494C84.7276 170.793 79.8499 162.332 76.7175 154.923C68.3592 135.174 64.18 113.308 55.1271 93.5583C50.9479 84.3879 43.6384 74.8689 37.7159 66.4039C31.1009 56.8829 23.7873 50.1794 18.5634 38.8949C16.824 35.0171 14.3842 28.6684 17.1703 24.4359C17.8668 21.6143 19.2579 20.5582 22.046 19.8528C26.5734 15.971 39.4592 20.9089 43.9827 23.0251C56.8684 28.3116 67.6626 33.2536 78.4588 40.6584C83.3325 44.1855 88.5565 50.8869 94.8233 52.6504H102.137C113.281 55.1173 125.815 53.3558 136.263 56.5282C154.721 62.5221 171.433 71.3398 186.409 80.8629C232.027 110.133 269.632 151.749 295.055 201.474C299.234 209.583 300.974 216.993 304.805 225.454C312.12 242.737 321.173 260.37 328.483 277.298C335.796 293.871 342.76 310.801 353.207 324.557C358.431 331.96 379.323 335.841 388.726 339.721C395.692 342.893 406.488 345.717 412.755 349.595C424.594 356.998 436.433 365.467 447.577 373.575C453.149 377.807 470.559 386.625 471.605 393.677V393.677Z" fill="#00546B"/>
<path d="M116.412 87.2075C110.493 87.2075 106.316 87.917 102.137 88.9731V89.6785H102.833C105.621 95.3218 110.493 99.2016 113.974 104.137C116.762 109.779 119.198 115.424 121.986 121.067C122.332 120.713 122.68 120.362 122.68 120.362C127.558 116.833 129.994 111.192 129.994 102.727C127.904 100.26 127.556 97.7907 125.815 95.3218C123.727 91.7927 119.198 90.0312 116.412 87.2075V87.2075Z" fill="#00546B"/>
</svg>
