<svg width="512" height="260" viewBox="0 0 512 260" fill="none" xmlns="http://www.w3.org/2000/svg">
<path fill-rule="evenodd" clip-rule="evenodd" d="M256 259.854C397.385 259.854 512 201.681 512 129.927C512 58.1724 397.385 0 256 0C114.618 0 0 58.1724 0 129.927C0 201.681 114.618 259.854 256 259.854Z" fill="#6E81B6"/>
<path fill-rule="evenodd" clip-rule="evenodd" d="M307.882 171.921L320.58 106.469C323.447 91.6967 321.063 80.6786 313.5 73.7155C306.173 66.9788 293.735 63.7019 275.477 63.7019H253.486L259.776 31.2737C259.894 30.6701 259.877 30.0479 259.726 29.4517C259.576 28.8555 259.295 28.3001 258.905 27.8254C258.515 27.3506 258.024 26.9683 257.469 26.7058C256.914 26.4433 256.307 26.3071 255.693 26.3071H225.341C223.347 26.3071 221.635 27.7239 221.255 29.6832L207.767 99.1683C206.541 91.3495 203.52 84.6283 198.685 79.082C189.782 68.8761 175.7 63.7019 156.826 63.7019H97.997C96.0034 63.7019 94.2915 65.1187 93.9108 67.0749L66.6169 207.725C66.3785 208.95 66.6973 210.208 67.4898 211.17C68.2792 212.134 69.4555 212.689 70.7031 212.689H101.294C103.287 212.689 104.999 211.272 105.38 209.309L111.983 175.291H134.754C146.703 175.291 156.745 173.995 164.583 171.44C172.598 168.83 179.975 164.403 186.475 158.308C191.729 153.475 196.069 148.062 199.409 142.224L193.958 170.324C193.719 171.549 194.038 172.814 194.83 173.769C195.62 174.733 196.799 175.288 198.044 175.288H228.396C230.39 175.288 232.102 173.871 232.482 171.915L247.462 94.7101H268.289C277.164 94.7101 279.765 96.4804 280.473 97.2399C281.114 97.9344 282.445 100.38 280.95 108.091L268.877 170.321C268.762 170.925 268.78 171.546 268.932 172.141C269.084 172.737 269.365 173.291 269.755 173.765C270.145 174.239 270.635 174.621 271.19 174.884C271.744 175.146 272.35 175.283 272.963 175.285H303.799C304.764 175.287 305.699 174.952 306.444 174.338C307.189 173.724 307.698 172.869 307.882 171.921V171.921ZM167.162 117.841C165.255 127.653 161.664 134.65 156.482 138.64C151.22 142.705 142.803 144.763 131.464 144.763H117.905L127.709 94.2358H145.239C158.117 94.2358 163.305 96.9919 165.388 99.3016C168.276 102.507 168.889 108.922 167.162 117.841V117.841ZM435.733 79.082C426.833 68.8761 412.752 63.7019 393.878 63.7019H335.049C333.052 63.7019 331.343 65.1187 330.963 67.0749L303.672 207.725C303.43 208.95 303.749 210.208 304.542 211.17C305.334 212.131 306.514 212.689 307.752 212.689H338.346C340.342 212.689 342.051 211.272 342.432 209.309L349.035 175.291H371.809C383.761 175.291 393.794 173.995 401.635 171.44C409.653 168.83 417.03 164.403 423.527 158.308C428.951 153.32 433.412 147.711 436.792 141.657C440.172 135.602 442.596 128.85 444.011 121.583C447.487 103.66 444.704 89.3623 435.733 79.082V79.082ZM405.951 117.841C404.041 127.653 400.45 134.65 395.274 138.64C390.008 142.705 381.591 144.763 370.255 144.763H356.693L366.494 94.2358H384.027C396.905 94.2358 402.093 96.9919 404.18 99.3016C407.062 102.507 407.678 108.922 405.951 117.841V117.841Z" fill="white"/>
<path fill-rule="evenodd" clip-rule="evenodd" d="M144.368 90.0666C155.989 90.0666 163.737 92.215 167.61 96.5119C171.48 100.809 172.402 108.187 170.378 118.638C168.26 129.523 164.186 137.292 158.15 141.948C152.113 146.605 142.926 148.93 130.593 148.93H111.982L123.405 90.0666H144.368ZM69.8291 208.519H100.42L107.679 171.128H133.883C145.446 171.128 154.958 169.909 162.425 167.476C169.892 165.042 176.68 160.965 182.788 155.239C187.914 150.524 192.062 145.315 195.238 139.623C198.411 133.931 200.665 127.653 201.999 120.786C205.237 104.114 202.795 91.1268 194.678 81.8262C186.565 72.5225 173.653 67.8722 155.955 67.8722H97.1262L69.8291 208.519V208.519ZM224.467 30.4775H254.82L247.563 67.8722H274.607C291.614 67.8722 303.356 70.8422 309.813 76.7853C316.271 82.7284 318.205 92.3607 315.624 105.676L302.925 171.128H272.09L284.163 108.894C285.534 101.813 285.033 96.9862 282.646 94.4099C280.259 91.8368 275.179 90.5471 267.416 90.5471H243.158L227.523 171.128H197.17L224.467 30.4775ZM383.157 90.0666C394.778 90.0666 402.523 92.215 406.399 96.5119C410.269 100.809 411.188 108.187 409.164 118.638C407.052 129.523 402.979 137.292 396.939 141.948C390.906 146.605 381.715 148.93 369.388 148.93H350.777L362.197 90.0666H383.157V90.0666ZM308.612 208.519H339.206L346.462 171.128H372.666C384.232 171.128 393.744 169.909 401.211 167.476C408.678 165.042 415.466 160.965 421.574 155.239C426.7 150.524 430.848 145.315 434.021 139.623C437.194 133.931 439.451 127.653 440.788 120.786C444.023 104.114 441.581 91.1268 433.467 81.8262C425.347 72.5225 412.439 67.8722 394.741 67.8722H335.912L308.612 208.519V208.519Z" fill="black"/>
</svg>
