<svg width="512" height="306" viewBox="0 0 512 306" fill="none" xmlns="http://www.w3.org/2000/svg">
<path d="M256 0C187.731 0 145.066 34.0007 127.997 101.996C153.6 67.995 183.467 55.2496 217.598 63.7465C237.075 68.5947 250.993 82.6734 266.404 98.2512C291.501 123.627 320.549 152.997 384.003 152.997C452.266 152.997 494.938 118.996 512 50.9947C486.403 84.9954 456.536 97.7472 422.398 89.2503C402.929 84.4021 389.01 70.3234 373.599 54.7456C348.502 29.3695 319.448 0 256 0V0ZM127.997 152.997C59.7344 152.997 17.0624 186.998 0 254.999C25.5968 220.998 55.464 208.246 89.6016 216.75C109.071 221.604 122.99 235.677 138.401 251.248C163.498 276.624 192.552 306 256 306C324.269 306 366.934 271.999 384.003 203.998C358.4 237.999 328.533 250.75 294.402 242.247C274.926 237.405 261.007 223.32 245.596 207.749C220.499 182.373 191.451 152.997 127.997 152.997V152.997Z" fill="#06B6D4"/>
</svg>
